<svg xmlns="http://www.w3.org/2000/svg" viewBox="0 0 256 256" fill="none" stroke="#fff" stroke-width="15" stroke-linecap="round" stroke-linejoin="round"><path d="M55 151c-35-35-20-91 24-112 38-19 84-4 103 34 19 39 5 85-31 106-34 20-71 2-96-28zM151 179l42 42M184 212c-7 7-7 18 0 25s18 7 25 0l6-6 6 6c7 7 18 7 25 0s7-18 0-25-18-7-25 0M75 74c18-13 42-13 60 0"/><g fill="#fff" stroke="#000" stroke-width="2" stroke-linejoin="round"><g transform="translate(0 0) translate(232 20) scale(2) translate(-232 -20)"><path d="m232 10 3.2 6.5 7.2 1-5.2 5 1.2 7.1-6.4-3.4-6.4 3.4 1.2-7.1-5.2-5 7.2-1z"/></g><g transform="translate(0 43) translate(232 20) scale(2) translate(-232 -20)"><path d="m232 10 3.2 6.5 7.2 1-5.2 5 1.2 7.1-6.4-3.4-6.4 3.4 1.2-7.1-5.2-5 7.2-1z"/></g><g transform="translate(0 86) translate(232 20) scale(2) translate(-232 -20)"><path d="m232 10 3.2 6.5 7.2 1-5.2 5 1.2 7.1-6.4-3.4-6.4 3.4 1.2-7.1-5.2-5 7.2-1z"/></g><g transform="translate(0 129) translate(232 20) scale(2) translate(-232 -20)"><path d="m232 10 3.2 6.5 7.2 1-5.2 5 1.2 7.1-6.4-3.4-6.4 3.4 1.2-7.1-5.2-5 7.2-1z"/></g></g></svg>
