<svg xmlns="http://www.w3.org/2000/svg" viewBox="0 0 256 256" fill="none" stroke="#fff" stroke-width="16" stroke-linecap="round" stroke-linejoin="round"><circle cx="128" cy="128" r="87"/><circle cx="128" cy="128" r="48"/><path d="M128 18v45M128 193v45M18 128h45M193 128h45"/><g fill="#fff" stroke="#000" stroke-width="2" stroke-linejoin="round"><g transform="translate(0 0) translate(232 20) scale(2) translate(-232 -20)"><path d="m232 10 3.2 6.5 7.2 1-5.2 5 1.2 7.1-6.4-3.4-6.4 3.4 1.2-7.1-5.2-5 7.2-1z"/></g><g transform="translate(0 43) translate(232 20) scale(2) translate(-232 -20)"><path d="m232 10 3.2 6.5 7.2 1-5.2 5 1.2 7.1-6.4-3.4-6.4 3.4 1.2-7.1-5.2-5 7.2-1z"/></g><g transform="translate(0 86) translate(232 20) scale(2) translate(-232 -20)"><path d="m232 10 3.2 6.5 7.2 1-5.2 5 1.2 7.1-6.4-3.4-6.4 3.4 1.2-7.1-5.2-5 7.2-1z"/></g><g transform="translate(0 129) translate(232 20) scale(2) translate(-232 -20)"><path d="m232 10 3.2 6.5 7.2 1-5.2 5 1.2 7.1-6.4-3.4-6.4 3.4 1.2-7.1-5.2-5 7.2-1z"/></g></g></svg>
